<?xml version="1.0" encoding="UTF-8" standalone="no"?>
<svg
   xmlns:dc="http://purl.org/dc/elements/1.1/"
   xmlns:cc="http://creativecommons.org/ns#"
   xmlns:rdf="http://www.w3.org/1999/02/22-rdf-syntax-ns#"
   xmlns:svg="http://www.w3.org/2000/svg"
   xmlns="http://www.w3.org/2000/svg"
   xmlns:sodipodi="http://sodipodi.sourceforge.net/DTD/sodipodi-0.dtd"
   xmlns:inkscape="http://www.inkscape.org/namespaces/inkscape"
   width="200"
   height="200"
   viewBox="0 0 52.916665 52.916668"
   version="1.1"
   id="svg8"
   inkscape:version="1.0.2 (e86c870879, 2021-01-15, custom)"
   sodipodi:docname="instagram.svg">
  <defs
     id="defs2" />
  <sodipodi:namedview
     id="base"
     pagecolor="#ffffff"
     bordercolor="#666666"
     borderopacity="1.0"
     inkscape:pageopacity="0.0"
     inkscape:pageshadow="2"
     inkscape:zoom="0.7"
     inkscape:cx="555.47999"
     inkscape:cy="519.13475"
     inkscape:document-units="mm"
     inkscape:current-layer="layer1"
     inkscape:document-rotation="0"
     showgrid="false"
     inkscape:window-width="1254"
     inkscape:window-height="1041"
     inkscape:window-x="0"
     inkscape:window-y="0"
     inkscape:window-maximized="0"
     units="px" />
  <metadata
     id="metadata5">
    <rdf:RDF>
      <cc:Work
         rdf:about="">
        <dc:format>image/svg+xml</dc:format>
        <dc:type
           rdf:resource="http://purl.org/dc/dcmitype/StillImage" />
        <dc:title></dc:title>
      </cc:Work>
    </rdf:RDF>
  </metadata>
  <g
     inkscape:label="Ebene 1"
     inkscape:groupmode="layer"
     id="layer1">
    <path
       style="fill:#000000;stroke-width:0.0846667"
       id="path42"
       d="" />
    <path
       style="fill:#000000;stroke-width:0.0846667"
       id="path40"
       d="" />
    <path
       style="fill:#000000;stroke-width:0.0846667"
       id="path38"
       d="" />
    <g
       id="g115"
       transform="matrix(0.56815017,0,0,0.56828513,-40.972302,-32.819699)"
       style="fill:#ff0000">
      <path
         style="fill:#ff0000;fill-opacity:1;stroke-width:0.264583"
         d="m 80.815364,143.54591 c -0.329107,-0.41965 -0.319749,-0.42901 0.0999,-0.0999 0.254661,0.19972 0.463021,0.40808 0.463021,0.46302 0,0.21776 -0.217273,0.0776 -0.562917,-0.36312 z m 75.175416,0.36312 c 0,-0.0549 0.20836,-0.2633 0.46302,-0.46302 0.41964,-0.32911 0.429,-0.31975 0.0999,0.0999 -0.34564,0.44073 -0.56291,0.58088 -0.56291,0.36312 z m -76.762916,-1.95062 c -0.329107,-0.41965 -0.319749,-0.42901 0.0999,-0.0999 0.254662,0.19972 0.463021,0.40808 0.463021,0.46302 0,0.21776 -0.217273,0.0776 -0.562917,-0.36312 z m 78.350416,0.36312 c 0,-0.0549 0.20836,-0.2633 0.46302,-0.46302 0.41964,-0.32911 0.429,-0.31975 0.0999,0.0999 -0.34564,0.44073 -0.56291,0.58088 -0.56291,0.36312 z M 78.997031,66.915286 c 0,-0.05494 0.208359,-0.2633 0.463021,-0.463021 0.419645,-0.329107 0.429003,-0.319749 0.0999,0.0999 -0.345644,0.44073 -0.562917,0.580887 -0.562917,0.363125 z m 78.812079,-0.363125 c -0.32911,-0.419645 -0.31975,-0.429003 0.0999,-0.0999 0.25466,0.199721 0.46302,0.40808 0.46302,0.463021 0,0.217762 -0.21728,0.07761 -0.56292,-0.363125 z M 80.584531,65.327786 c 0,-0.05494 0.208359,-0.2633 0.463021,-0.463021 0.419645,-0.329107 0.429003,-0.319749 0.0999,0.0999 -0.345644,0.44073 -0.562917,0.580887 -0.562917,0.363125 z m 75.637079,-0.363125 c -0.32911,-0.419645 -0.31975,-0.429003 0.0999,-0.0999 0.25466,0.199721 0.46302,0.40808 0.46302,0.463021 0,0.217762 -0.21728,0.0776 -0.56292,-0.363125 z"
         id="path123" />
      <path
         style="fill:#ff0000;fill-opacity:1;stroke-width:0.264583"
         d="m 96.939087,150.70735 c 0.190995,-0.0764 0.419198,-0.067 0.507119,0.0209 0.08792,0.0879 -0.06835,0.15045 -0.347265,0.13896 -0.308227,-0.0127 -0.37092,-0.0754 -0.159854,-0.15985 z m 43.127083,0 c 0.19099,-0.0764 0.4192,-0.067 0.50712,0.0209 0.0879,0.0879 -0.0683,0.15045 -0.34727,0.13896 -0.30822,-0.0127 -0.37092,-0.0754 -0.15985,-0.15985 z m -60.044556,-7.95519 c -0.329107,-0.41965 -0.319749,-0.42901 0.0999,-0.0999 0.254662,0.19972 0.463021,0.40808 0.463021,0.46302 0,0.21776 -0.217273,0.0776 -0.562917,-0.36312 z m 76.762916,0.36312 c 0,-0.0549 0.20836,-0.2633 0.46302,-0.46302 0.41964,-0.32911 0.429,-0.31975 0.0999,0.0999 -0.34564,0.44073 -0.56291,0.58088 -0.56291,0.36312 z m -40.53086,-13.57459 c 0.19099,-0.0764 0.4192,-0.067 0.50712,0.0209 0.0879,0.0879 -0.0683,0.15046 -0.34727,0.13897 -0.30822,-0.0127 -0.37092,-0.0754 -0.15985,-0.15985 z m 4.49792,0 c 0.19099,-0.0764 0.4192,-0.067 0.50712,0.0209 0.0879,0.0879 -0.0684,0.15046 -0.34727,0.13897 -0.30823,-0.0127 -0.37092,-0.0754 -0.15985,-0.15985 z m -48.612837,-3.67777 c 0.01269,-0.30822 0.07539,-0.37092 0.159852,-0.15985 0.07643,0.19099 0.06703,0.4192 -0.02089,0.50712 -0.08792,0.0879 -0.150453,-0.0683 -0.138964,-0.34727 z m 92.868747,0 c 0.0127,-0.30822 0.0754,-0.37092 0.15985,-0.15985 0.0764,0.19099 0.067,0.4192 -0.0209,0.50712 -0.0879,0.0879 -0.15045,-0.0683 -0.13896,-0.34727 z M 93.305419,106.54834 c 0.0127,-0.30823 0.07539,-0.37092 0.159851,-0.15985 0.07643,0.19099 0.06703,0.4192 -0.02088,0.50712 -0.08792,0.0879 -0.150453,-0.0684 -0.138964,-0.34727 z m 50.535411,0 c 0.0127,-0.30823 0.0754,-0.37092 0.15985,-0.15985 0.0764,0.19099 0.067,0.4192 -0.0209,0.50712 -0.0879,0.0879 -0.15045,-0.0684 -0.13897,-0.34727 z m -50.535411,-4.49792 c 0.0127,-0.30822 0.07539,-0.37092 0.159851,-0.15985 0.07643,0.191 0.06703,0.4192 -0.02088,0.50712 -0.08792,0.0879 -0.150453,-0.0683 -0.138964,-0.34727 z m 50.535411,0 c 0.0127,-0.30822 0.0754,-0.37092 0.15985,-0.15985 0.0764,0.191 0.067,0.4192 -0.0209,0.50712 -0.0879,0.0879 -0.15045,-0.0683 -0.13897,-0.34727 z M 72.138753,82.735842 c 0.01269,-0.308227 0.07539,-0.37092 0.159852,-0.159854 0.07643,0.190995 0.06703,0.419198 -0.02089,0.507119 -0.08792,0.08792 -0.150453,-0.06835 -0.138964,-0.347265 z m 92.868747,0 c 0.0127,-0.308227 0.0754,-0.37092 0.15985,-0.159854 0.0764,0.190995 0.067,0.419198 -0.0209,0.507119 -0.0879,0.08792 -0.15045,-0.06835 -0.13896,-0.347265 z m -48.75383,-3.730567 c 0.19099,-0.07643 0.4192,-0.06703 0.50712,0.02088 0.0879,0.08792 -0.0683,0.150452 -0.34727,0.138964 -0.30822,-0.0127 -0.37092,-0.07539 -0.15985,-0.159851 z m 4.49792,0 c 0.19099,-0.07643 0.4192,-0.06703 0.50712,0.02088 0.0879,0.08792 -0.0684,0.150452 -0.34727,0.138964 -0.30823,-0.0127 -0.37092,-0.07539 -0.15985,-0.159851 z M 79.790781,66.121536 c 0,-0.05494 0.208359,-0.2633 0.463021,-0.463021 0.419645,-0.329107 0.429003,-0.319749 0.0999,0.0999 -0.345644,0.44073 -0.562917,0.580887 -0.562917,0.363125 z m 77.224579,-0.363125 c -0.32911,-0.419645 -0.31975,-0.429003 0.0999,-0.0999 0.44073,0.345644 0.58088,0.562917 0.36312,0.562917 -0.0549,0 -0.2633,-0.208359 -0.46302,-0.463021 z M 96.939087,57.838608 c 0.190995,-0.07643 0.419198,-0.06703 0.507119,0.02089 0.08792,0.08792 -0.06835,0.150453 -0.347265,0.138965 -0.308227,-0.0127 -0.37092,-0.07539 -0.159854,-0.159853 z m 43.127083,0 c 0.19099,-0.07643 0.4192,-0.06703 0.50712,0.02089 0.0879,0.08792 -0.0683,0.150453 -0.34727,0.138965 -0.30822,-0.0127 -0.37092,-0.07539 -0.15985,-0.159853 z"
         id="path121" />
      <path
         style="fill:#ff0000;fill-opacity:1;stroke-width:0.264583"
         d="m 97.732837,150.70735 c 0.190995,-0.0764 0.419198,-0.067 0.507119,0.0209 0.08792,0.0879 -0.06835,0.15045 -0.347265,0.13896 -0.308227,-0.0127 -0.37092,-0.0754 -0.159854,-0.15985 z m 41.539583,0 c 0.19099,-0.0764 0.4192,-0.067 0.50712,0.0209 0.0879,0.0879 -0.0684,0.15045 -0.34727,0.13896 -0.30822,-0.0127 -0.37092,-0.0754 -0.15985,-0.15985 z m -22.225,-21.16666 c 0.19099,-0.0764 0.4192,-0.067 0.50712,0.0209 0.0879,0.0879 -0.0684,0.15046 -0.34727,0.13897 -0.30822,-0.0127 -0.37092,-0.0754 -0.15985,-0.15985 z m 2.91042,0 c 0.19099,-0.0764 0.4192,-0.067 0.50712,0.0209 0.0879,0.0879 -0.0684,0.15046 -0.34727,0.13897 -0.30823,-0.0127 -0.37092,-0.0754 -0.15985,-0.15985 z m -47.819087,-4.47152 c 0.01269,-0.30822 0.07539,-0.37092 0.159852,-0.15985 0.07643,0.19099 0.06703,0.4192 -0.02089,0.50712 -0.08792,0.0879 -0.150453,-0.0683 -0.138964,-0.34727 z m 92.868747,0 c 0.0127,-0.30822 0.0754,-0.37092 0.15985,-0.15985 0.0764,0.19099 0.067,0.4192 -0.0209,0.50712 -0.0879,0.0879 -0.15045,-0.0683 -0.13896,-0.34727 z m -63.29005,-1.89618 c -0.32911,-0.41964 -0.31975,-0.429 0.0999,-0.0999 0.25466,0.19972 0.46302,0.40808 0.46302,0.46302 0,0.21776 -0.21727,0.0776 -0.56291,-0.36313 z m 33.37124,0.36313 c 0,-0.0549 0.20836,-0.2633 0.46303,-0.46302 0.41964,-0.32911 0.429,-0.31975 0.0999,0.0999 -0.34564,0.44073 -0.56292,0.58089 -0.56292,0.36313 z m -35.48791,-2.47979 c -0.329108,-0.41965 -0.319749,-0.42901 0.0999,-0.0999 0.44073,0.34564 0.58088,0.56292 0.36312,0.56292 -0.0549,0 -0.263296,-0.20836 -0.463016,-0.46302 z m 37.60458,0.36312 c 0,-0.0549 0.20836,-0.2633 0.46302,-0.46302 0.41965,-0.32911 0.42901,-0.31975 0.0999,0.0999 -0.34565,0.44072 -0.56292,0.58088 -0.56292,0.36312 z M 93.305419,105.75459 c 0.0127,-0.30823 0.07539,-0.37092 0.159851,-0.15985 0.07643,0.19099 0.06703,0.4192 -0.02088,0.50712 -0.08792,0.0879 -0.150453,-0.0684 -0.138964,-0.34727 z m 50.535411,0 c 0.0127,-0.30823 0.0754,-0.37092 0.15985,-0.15985 0.0764,0.19099 0.067,0.4192 -0.0209,0.50712 -0.0879,0.0879 -0.15045,-0.0684 -0.13897,-0.34727 z m -50.535411,-2.91042 c 0.0127,-0.30822 0.07539,-0.37092 0.159851,-0.15985 0.07643,0.191 0.06703,0.4192 -0.02088,0.50712 -0.08792,0.0879 -0.150453,-0.0683 -0.138964,-0.34727 z m 50.535411,0 c 0.0127,-0.30822 0.0754,-0.37092 0.15985,-0.15985 0.0764,0.191 0.067,0.4192 -0.0209,0.50712 -0.0879,0.0879 -0.15045,-0.0683 -0.13897,-0.34727 z M 99.369947,87.817368 c 0,-0.05494 0.208359,-0.2633 0.46302,-0.463021 0.419643,-0.329107 0.429003,-0.319749 0.0999,0.0999 -0.345644,0.44073 -0.562917,0.580888 -0.562917,0.363125 z m 38.066243,-0.363125 c -0.3291,-0.419645 -0.31974,-0.429003 0.0999,-0.0999 0.44073,0.345644 0.58089,0.562917 0.36313,0.562917 -0.055,0 -0.2633,-0.208359 -0.46303,-0.463021 z m -35.94958,-1.753542 c 0,-0.05494 0.20836,-0.2633 0.46302,-0.46302 0.41965,-0.329108 0.42901,-0.319749 0.0999,0.0999 -0.34564,0.440729 -0.56292,0.580887 -0.56292,0.363124 z m 33.83292,-0.363124 c -0.32911,-0.419645 -0.31975,-0.429004 0.0999,-0.0999 0.44073,0.345643 0.58089,0.562917 0.36313,0.562917 -0.0549,0 -0.2633,-0.20836 -0.46302,-0.463021 z M 72.138753,83.529592 c 0.01269,-0.308227 0.07539,-0.37092 0.159852,-0.159854 0.07643,0.190995 0.06703,0.419198 -0.02089,0.507119 -0.08792,0.08792 -0.150453,-0.06835 -0.138964,-0.347265 z m 92.868747,0 c 0.0127,-0.308227 0.0754,-0.37092 0.15985,-0.159854 0.0764,0.190995 0.067,0.419198 -0.0209,0.507119 -0.0879,0.08792 -0.15045,-0.06835 -0.13896,-0.347265 z m -47.96008,-4.524317 c 0.19099,-0.07643 0.4192,-0.06703 0.50712,0.02088 0.0879,0.08792 -0.0684,0.150452 -0.34727,0.138964 -0.30822,-0.0127 -0.37092,-0.07539 -0.15985,-0.159851 z m 2.91042,0 c 0.19099,-0.07643 0.4192,-0.06703 0.50712,0.02088 0.0879,0.08792 -0.0684,0.150452 -0.34727,0.138964 -0.30823,-0.0127 -0.37092,-0.07539 -0.15985,-0.159851 z M 97.732837,57.838608 c 0.190995,-0.07643 0.419198,-0.06703 0.507119,0.02089 0.08792,0.08792 -0.06835,0.150453 -0.347265,0.138965 -0.308227,-0.0127 -0.37092,-0.07539 -0.159854,-0.159853 z m 41.539583,0 c 0.19099,-0.07643 0.4192,-0.06703 0.50712,0.02089 0.0879,0.08792 -0.0684,0.150453 -0.34727,0.138965 -0.30822,-0.0127 -0.37092,-0.07539 -0.15985,-0.159853 z"
         id="path119" />
      <path
         style="fill:#ff0000;fill-opacity:1;stroke-width:0.264583"
         d="m 96.45953,150.59738 c -8.80869,-0.98572 -16.655419,-6.31743 -20.988612,-14.26137 -1.67916,-3.07837 -2.651492,-6.27889 -3.071425,-10.10988 -0.378966,-3.45727 -0.378966,-40.352134 0,-43.809397 0.698751,-6.374614 3.073826,-11.481278 7.511319,-16.150137 4.456496,-4.688851 10.221515,-7.501538 16.86902,-8.230202 3.457258,-0.378966 40.352128,-0.378966 43.809398,0 6.6475,0.728664 12.41252,3.541351 16.86902,8.230202 4.43749,4.668859 6.81256,9.775523 7.51132,16.150137 0.37896,3.457263 0.37896,40.352127 0,43.809397 -0.69876,6.37461 -3.07383,11.48128 -7.51132,16.15013 -4.4565,4.68885 -10.22152,7.50154 -16.86902,8.23021 -3.05929,0.33534 -41.121829,0.32751 -44.1297,-0.009 z m 47.22812,-9.02908 c 3.02142,-1.02895 5.25931,-2.42566 7.5387,-4.70505 2.27939,-2.27939 3.6761,-4.51728 4.70505,-7.5387 l 0.72084,-2.11666 V 104.32143 81.434973 l -0.72084,-2.116667 c -1.02895,-3.021414 -2.42566,-5.259305 -4.70505,-7.538696 -2.27939,-2.279393 -4.51728,-3.676104 -7.5387,-4.705053 l -2.11666,-0.720833 H 118.68453 95.798072 l -2.116667,0.720833 c -3.021414,1.028949 -5.259305,2.42566 -7.538696,4.705053 -2.279393,2.279391 -3.676104,4.517282 -4.705053,7.538696 l -0.720833,2.116667 -0.07345,22.204437 c -0.07124,21.53706 -0.05737,22.26868 0.461695,24.34167 1.728758,6.90423 6.879709,12.10538 13.766963,13.90115 1.902352,0.49601 2.90852,0.51512 24.341669,0.46215 l 22.35729,-0.0552 z M 115.7895,129.42464 c -10.15835,-1.17698 -18.785106,-8.5328 -21.438445,-18.28 -2.438151,-8.9567 -0.01709,-18.14871 6.495435,-24.661245 6.51254,-6.512536 15.70455,-8.93359 24.66125,-6.495439 8.32946,2.267408 15.24286,9.180803 17.51026,17.510267 2.43815,8.956697 0.0171,18.148707 -6.49544,24.661247 -4.26902,4.26902 -9.15376,6.59237 -15.32449,7.28885 -2.63973,0.29794 -2.63246,0.29797 -5.40857,-0.0237 z m 6.86378,-8.58183 c 3.06607,-0.72048 5.43411,-2.0929 7.94692,-4.60571 3.49126,-3.49126 5.00984,-7.10313 5.00984,-11.91567 0,-4.812535 -1.51858,-8.424415 -5.00984,-11.915671 -3.49126,-3.491257 -7.10314,-5.00984 -11.91567,-5.00984 -4.81254,0 -8.42442,1.518583 -11.91567,5.00984 -3.49126,3.491256 -5.00984,7.103136 -5.00984,11.915671 0,4.81254 1.51858,8.42441 5.00984,11.91567 2.47247,2.47247 4.86328,3.87634 7.81786,4.59059 2.10395,0.50861 5.9359,0.5158 8.06656,0.0151 z m 19.39416,-38.238424 c -0.79335,-0.392705 -1.26619,-0.870455 -1.65364,-1.670825 -0.6783,-1.401167 -0.67797,-1.830017 0.002,-3.235608 0.55139,-1.138849 2.15135,-2.216105 3.29147,-2.216105 1.14013,0 2.74008,1.077256 3.29139,2.216105 0.29979,0.619281 0.54507,1.348441 0.54507,1.620353 0,1.140127 -1.07726,2.740081 -2.2161,3.291388 -1.40956,0.682355 -1.87286,0.681601 -3.26057,-0.0053 z"
         id="path117" />
    </g>
  </g>
</svg>
