<?xml version="1.0" encoding="UTF-8" standalone="no"?>
<svg
   xmlns:dc="http://purl.org/dc/elements/1.1/"
   xmlns:cc="http://creativecommons.org/ns#"
   xmlns:rdf="http://www.w3.org/1999/02/22-rdf-syntax-ns#"
   xmlns:svg="http://www.w3.org/2000/svg"
   xmlns="http://www.w3.org/2000/svg"
   xmlns:sodipodi="http://sodipodi.sourceforge.net/DTD/sodipodi-0.dtd"
   xmlns:inkscape="http://www.inkscape.org/namespaces/inkscape"
   width="200"
   height="200"
   viewBox="0 0 52.916665 52.916668"
   version="1.1"
   id="svg8"
   sodipodi:docname="Twitter.svg"
   inkscape:version="1.0.2 (e86c870879, 2021-01-15, custom)">
  <sodipodi:namedview
     pagecolor="#ffffff"
     bordercolor="#666666"
     borderopacity="1"
     objecttolerance="10"
     gridtolerance="10"
     guidetolerance="10"
     inkscape:pageopacity="0"
     inkscape:pageshadow="2"
     inkscape:window-width="1920"
     inkscape:window-height="1057"
     id="namedview13"
     showgrid="false"
     units="px"
     inkscape:zoom="0.79285915"
     inkscape:cx="396.85039"
     inkscape:cy="409.90887"
     inkscape:window-x="-8"
     inkscape:window-y="-8"
     inkscape:window-maximized="1"
     inkscape:current-layer="svg8" />
  <defs
     id="defs2" />
  <metadata
     id="metadata5">
    <rdf:RDF>
      <cc:Work
         rdf:about="">
        <dc:format>image/svg+xml</dc:format>
        <dc:type
           rdf:resource="http://purl.org/dc/dcmitype/StillImage" />
        <dc:title></dc:title>
      </cc:Work>
    </rdf:RDF>
  </metadata>
  <g
     id="layer1"
     transform="translate(-95.752118,-59.423995)">
    <g
       id="g44"
       transform="matrix(0.54995911,0,0,0.54995911,63.384494,47.645496)"
       style="fill:#ff0000">
      <path
         style="fill:#ff0000;fill-opacity:1;stroke-width:0.0846667"
         d="m 87.009948,106.48357 c 0.105317,-0.0203 0.257717,-0.0195 0.338666,0.002 0.08095,0.0212 -0.0052,0.0378 -0.191487,0.0368 -0.186266,-9.4e-4 -0.252497,-0.0183 -0.147179,-0.0385 z m 3.767843,-8.7e-4 c 0.128699,-0.0195 0.319199,-0.0189 0.423334,0.001 0.104135,0.0201 -0.0012,0.036 -0.233998,0.0354 -0.232833,-6.7e-4 -0.318034,-0.0171 -0.189336,-0.0365 z m -5.462164,-0.08 c 0.05821,-0.0235 0.153459,-0.0235 0.211667,0 0.05821,0.0235 0.01058,0.0427 -0.105833,0.0427 -0.116417,0 -0.164042,-0.0192 -0.105834,-0.0427 z m 7.450667,0 c 0.05821,-0.0235 0.153458,-0.0235 0.211667,0 0.05821,0.0235 0.01058,0.0427 -0.105834,0.0427 -0.116416,0 -0.164041,-0.0192 -0.105833,-0.0427 z m -8.546042,-0.0864 c 0.06112,-0.0245 0.134144,-0.0215 0.162278,0.007 0.02813,0.0281 -0.02187,0.0482 -0.111125,0.0445 -0.09863,-0.004 -0.118694,-0.0241 -0.05115,-0.0511 z m 9.736667,0 c 0.06112,-0.0245 0.134144,-0.0215 0.162278,0.007 0.02813,0.0281 -0.02187,0.0482 -0.111125,0.0445 -0.09863,-0.004 -0.118694,-0.0241 -0.05115,-0.0511 z m -10.668,-0.0847 c 0.06112,-0.0245 0.134144,-0.0215 0.162278,0.007 0.02813,0.0281 -0.02187,0.0481 -0.111125,0.0445 -0.09863,-0.004 -0.118694,-0.0241 -0.05115,-0.0511 z m 11.684,0 c 0.06112,-0.0245 0.134144,-0.0215 0.162278,0.007 0.02813,0.0281 -0.02187,0.0481 -0.111125,0.0445 -0.09863,-0.004 -0.118694,-0.0241 -0.05115,-0.0511 z M 61.609948,97.84757 c 0.105318,-0.02025 0.257718,-0.01948 0.338666,0.0017 0.08095,0.02119 -0.0052,0.03776 -0.191487,0.03682 -0.186266,-9.4e-4 -0.252497,-0.01828 -0.147179,-0.03853 z m 3.258679,0.0015 c 0.08149,-0.02129 0.214842,-0.02129 0.296334,0 0.08149,0.0213 0.01482,0.03872 -0.148167,0.03872 -0.162983,0 -0.229658,-0.01742 -0.148167,-0.03872 z m -4.609041,-0.08414 c 0.06112,-0.02446 0.134143,-0.02145 0.162277,0.0067 0.02813,0.02813 -0.02187,0.04814 -0.111125,0.04447 -0.09863,-0.0041 -0.118694,-0.02412 -0.05115,-0.05115 z m 6.180666,0 c 0.06112,-0.02446 0.134144,-0.02145 0.162278,0.0067 0.02813,0.02813 -0.02187,0.04814 -0.111125,0.04447 -0.09863,-0.0041 -0.118694,-0.02412 -0.05115,-0.05115 z m 0.931334,-0.08467 c 0.06112,-0.02446 0.134143,-0.02145 0.162278,0.0067 0.02813,0.02813 -0.02187,0.04815 -0.111125,0.04447 -0.09863,-0.0041 -0.118695,-0.02412 -0.05115,-0.05115 z m 59.113204,-5.138797 c 0,-0.01758 0.0667,-0.08426 0.14817,-0.148167 0.13429,-0.105314 0.13728,-0.10232 0.032,0.03197 -0.11061,0.141033 -0.18014,0.185884 -0.18014,0.1162 z m 1.86267,-1.788367 c 0.29999,-0.302683 0.56449,-0.550333 0.58778,-0.550333 0.0233,0 -0.20312,0.24765 -0.50311,0.550333 -0.3,0.302683 -0.56449,0.550333 -0.58778,0.550333 -0.0233,0 0.20312,-0.24765 0.50311,-0.550333 z m -41.502541,-1.37017 c 0.06112,-0.02446 0.134144,-0.02145 0.162278,0.0067 0.02813,0.02813 -0.02187,0.04815 -0.111125,0.04447 -0.09863,-0.0041 -0.118694,-0.02412 -0.05115,-0.05115 z m 43.195871,-0.397464 c 0,-0.01758 0.0667,-0.08426 0.14817,-0.148166 0.13429,-0.105315 0.13728,-0.10232 0.032,0.03197 -0.11061,0.141033 -0.18014,0.185883 -0.18014,0.116199 z M 72.236238,76.004777 c 0.08238,-0.02147 0.196679,-0.02005 0.254,0.0031 0.05732,0.02319 -0.01008,0.04076 -0.149777,0.03903 -0.1397,-0.0017 -0.186601,-0.0207 -0.104223,-0.04217 z m 1.691723,3.39e-4 c 0.08149,-0.02129 0.214841,-0.02129 0.296333,0 0.08149,0.0213 0.01482,0.03872 -0.148167,0.03872 -0.162983,0 -0.229658,-0.01743 -0.148166,-0.03872 z m -2.831042,-0.08414 c 0.06112,-0.02446 0.134143,-0.02145 0.162278,0.0067 0.02813,0.02813 -0.02187,0.04815 -0.111125,0.04447 -0.09863,-0.0041 -0.118694,-0.02413 -0.05115,-0.05115 z M 70.943461,58.16632 c 0,-0.07185 0.430531,-0.109054 0.472683,-0.04085 0.02492,0.04032 -0.07124,0.07331 -0.213686,0.07331 -0.142449,0 -0.258997,-0.01461 -0.258997,-0.03246 z m -8.375316,-0.524926 c 0.0041,-0.09863 0.02412,-0.118694 0.05115,-0.05115 0.02446,0.06112 0.02145,0.134145 -0.0067,0.162278 -0.02813,0.02813 -0.04815,-0.02187 -0.04447,-0.111125 z m 82.380665,-1.608666 c 0.004,-0.09863 0.0241,-0.118695 0.0511,-0.05115 0.0245,0.06112 0.0215,0.134144 -0.007,0.162278 -0.0281,0.02813 -0.0481,-0.02187 -0.0445,-0.111125 z m 0.0847,-0.846667 c 0.004,-0.09863 0.0241,-0.118694 0.0512,-0.05115 0.0245,0.06112 0.0214,0.134144 -0.007,0.162278 -0.0281,0.02813 -0.0482,-0.02187 -0.0445,-0.111125 z m 0.0847,-1.016 c 0.004,-0.09863 0.0241,-0.118694 0.0512,-0.05115 0.0245,0.06112 0.0215,0.134144 -0.007,0.162278 -0.0281,0.02813 -0.0481,-0.02187 -0.0445,-0.111125 z m 0.0914,-1.305278 c 0,-0.116417 0.0192,-0.164042 0.0427,-0.105834 0.0235,0.05821 0.0235,0.153459 0,0.211667 -0.0235,0.05821 -0.0427,0.01058 -0.0427,-0.105833 z m -39.65854,-0.479407 c 0.0582,-0.02349 0.15346,-0.02349 0.21167,0 0.0582,0.02349 0.0106,0.0427 -0.10584,0.0427 -0.11641,0 -0.16404,-0.01922 -0.10583,-0.0427 z m -1.18004,-0.08643 c 0.0611,-0.02446 0.13414,-0.02145 0.16228,0.0067 0.0281,0.02813 -0.0219,0.04815 -0.11113,0.04447 -0.0986,-0.0041 -0.11869,-0.02413 -0.0512,-0.05115 z m 1.29256,-2.870219 c 0.004,-0.09863 0.0241,-0.118694 0.0511,-0.05115 0.0245,0.06112 0.0215,0.134144 -0.007,0.162278 -0.0281,0.02813 -0.0481,-0.02187 -0.0445,-0.111125 z m 0.007,-2.998611 c 0,-0.116417 0.0192,-0.164042 0.0427,-0.105833 0.0235,0.05821 0.0235,0.153458 0,0.211666 -0.0235,0.05821 -0.0427,0.01058 -0.0427,-0.105833 z m 42.9973,-1.555967 c 0,-0.01758 0.0667,-0.08426 0.14817,-0.148167 0.13429,-0.105314 0.13728,-0.102319 0.032,0.03197 -0.11061,0.141034 -0.18014,0.185884 -0.18014,0.1162 z M 62.737478,43.50206 c 0.0041,-0.09863 0.02412,-0.118694 0.05115,-0.05115 0.02446,0.06112 0.02145,0.134144 -0.0067,0.162278 -0.02813,0.02813 -0.04815,-0.02187 -0.04447,-0.111125 z m -0.06357,-1.770944 c 3.72e-4,-0.325967 0.01568,-0.448942 0.03401,-0.273279 0.01833,0.175664 0.01802,0.442364 -6.86e-4,0.592667 -0.0187,0.150303 -0.0337,0.0066 -0.03332,-0.319388 z m 88.618222,0.518366 c 0,-0.01758 0.0667,-0.08426 0.14816,-0.148166 0.13429,-0.105315 0.13728,-0.10232 0.032,0.03197 -0.1106,0.141034 -0.18013,0.185884 -0.18013,0.1162 z M 62.737478,39.94606 c 0.0041,-0.09863 0.02412,-0.118694 0.05115,-0.05115 0.02446,0.06112 0.02145,0.134144 -0.0067,0.162278 -0.02813,0.02813 -0.04815,-0.02187 -0.04447,-0.111125 z m 84.067312,-1.675911 c 0,-0.01758 0.0667,-0.08426 0.14817,-0.148167 0.13429,-0.105314 0.13728,-0.10232 0.032,0.03197 -0.11061,0.141033 -0.18014,0.185884 -0.18014,0.1162 z M 71.271327,37.984615 c -0.105314,-0.134286 -0.102319,-0.137281 0.03197,-0.03197 0.141033,0.110606 0.185884,0.180133 0.1162,0.180133 -0.01758,0 -0.08426,-0.06667 -0.148167,-0.148167 z m -1.263757,-1.185333 -0.291776,-0.3175 0.3175,0.291776 c 0.174625,0.160476 0.3175,0.303351 0.3175,0.3175 0,0.06465 -0.07165,0.0038 -0.343224,-0.291776 z m -1.608667,-1.608667 -0.291776,-0.3175 0.3175,0.291776 c 0.295523,0.271578 0.356429,0.343224 0.291776,0.343224 -0.01415,0 -0.157024,-0.142875 -0.3175,-0.3175 z m 42.464887,-0.6985 c 0.0843,-0.09313 0.1723,-0.169333 0.19558,-0.169333 0.0233,0 -0.0266,0.0762 -0.11091,0.169333 -0.0843,0.09313 -0.17229,0.169334 -0.19558,0.169334 -0.0233,0 0.0266,-0.0762 0.11091,-0.169334 z m -43.656463,-0.5715 c -0.105314,-0.134286 -0.102319,-0.13728 0.03197,-0.03197 0.08149,0.06391 0.148167,0.130585 0.148167,0.148167 0,0.06968 -0.06953,0.02483 -0.180134,-0.116201 z m 44.757133,-0.529166 c 0.0843,-0.09313 0.1723,-0.169334 0.19558,-0.169334 0.0233,0 -0.0266,0.0762 -0.11091,0.169334 -0.0843,0.09313 -0.1723,0.169333 -0.19558,0.169333 -0.0233,0 0.0266,-0.0762 0.11091,-0.169333 z m 11.96446,-5.222504 c 0.0611,-0.02446 0.13414,-0.02145 0.16228,0.0067 0.0281,0.02813 -0.0219,0.04814 -0.11113,0.04447 -0.0986,-0.0041 -0.11869,-0.02412 -0.0511,-0.05115 z m 2.87867,0 c 0.0611,-0.02446 0.13414,-0.02145 0.16227,0.0067 0.0281,0.02813 -0.0219,0.04814 -0.11112,0.04447 -0.0986,-0.0041 -0.1187,-0.02412 -0.0511,-0.05115 z"
         id="path50" />
      <path
         style="fill:#ff0000;fill-opacity:1;stroke-width:0.0846667"
         d="m 88.241025,106.48028 c 0.456444,-0.0152 1.180344,-0.0152 1.608666,1.7e-4 0.428323,0.0153 0.05487,0.0278 -0.829897,0.0277 -0.884767,-8e-5 -1.235213,-0.0126 -0.778769,-0.0279 z m -2.586731,-0.0776 c 0.05821,-0.0235 0.153458,-0.0235 0.211667,0 0.05821,0.0235 0.01058,0.0427 -0.105834,0.0427 -0.116416,0 -0.164041,-0.0192 -0.105833,-0.0427 z m 6.732611,-0.003 c 0.08238,-0.0215 0.196678,-0.02 0.254,0.003 0.05732,0.0232 -0.01008,0.0408 -0.149778,0.039 -0.1397,-0.002 -0.1866,-0.0207 -0.104222,-0.0422 z m -7.912653,-0.0838 c 0.06112,-0.0245 0.134144,-0.0215 0.162278,0.007 0.02813,0.0281 -0.02187,0.0482 -0.111125,0.0445 -0.09863,-0.004 -0.118694,-0.0241 -0.05115,-0.0511 z m 9.228667,0 c 0.06112,-0.0245 0.134144,-0.0215 0.162278,0.007 0.02813,0.0281 -0.02187,0.0482 -0.111125,0.0445 -0.09863,-0.004 -0.118694,-0.0241 -0.05115,-0.0511 z m 1.016,-0.0847 c 0.06112,-0.0245 0.134144,-0.0215 0.162278,0.007 0.02813,0.0281 -0.02187,0.0481 -0.111125,0.0445 -0.09863,-0.004 -0.118694,-0.0241 -0.05115,-0.0512 z M 61.185627,97.851379 c 0.05821,-0.02349 0.153459,-0.02349 0.211667,0 0.05821,0.02349 0.01058,0.04271 -0.105833,0.04271 -0.116417,0 -0.164042,-0.01922 -0.105834,-0.04271 z m 4.192612,-0.0026 c 0.08238,-0.02147 0.196678,-0.02005 0.254,0.0031 0.05732,0.02319 -0.01008,0.04076 -0.149778,0.03903 -0.1397,-0.0017 -0.1866,-0.0207 -0.104222,-0.04217 z m -5.462612,-0.08207 c 0.05821,-0.02349 0.153459,-0.02349 0.211667,0 0.05821,0.02349 0.01058,0.0427 -0.105833,0.0427 -0.116417,0 -0.164042,-0.01922 -0.105834,-0.0427 z m 6.778625,-0.0018 c 0.06112,-0.02446 0.134144,-0.02145 0.162278,0.0067 0.02813,0.02813 -0.02187,0.04815 -0.111125,0.04447 -0.09863,-0.0041 -0.118694,-0.02413 -0.05115,-0.05115 z m -7.62,-0.08467 c 0.06112,-0.02446 0.134144,-0.02145 0.162278,0.0067 0.02813,0.02813 -0.02187,0.04814 -0.111125,0.04447 -0.09863,-0.0041 -0.118694,-0.02412 -0.05115,-0.05115 z M 123.77546,94.82744 c 0,-0.01758 0.0667,-0.08426 0.14817,-0.148167 0.13428,-0.105314 0.13728,-0.10232 0.032,0.03197 -0.1106,0.141033 -0.18013,0.185884 -0.18013,0.1162 z m 0.93133,-0.762 c 0,-0.01758 0.0667,-0.08426 0.14817,-0.148167 0.13429,-0.105314 0.13728,-0.10232 0.032,0.03197 -0.11061,0.141033 -0.18014,0.185884 -0.18014,0.1162 z m 0.635,-0.5607 c 0.0843,-0.09313 0.1723,-0.169334 0.19558,-0.169334 0.0233,0 -0.0266,0.0762 -0.11091,0.169334 -0.0843,0.09313 -0.17229,0.169333 -0.19558,0.169333 -0.0233,0 0.0266,-0.0762 0.11091,-0.169333 z m 0.67734,-0.592667 c 0.0843,-0.09313 0.17229,-0.169333 0.19558,-0.169333 0.0233,0 -0.0266,0.0762 -0.11092,0.169333 -0.0843,0.09313 -0.17229,0.169333 -0.19557,0.169333 -0.0233,0 0.0266,-0.0762 0.11091,-0.169333 z m 0.97366,-0.889 c 0.15797,-0.162983 0.30627,-0.296333 0.32955,-0.296333 0.0233,0 -0.0869,0.13335 -0.24488,0.296333 -0.15797,0.162983 -0.30627,0.296333 -0.32955,0.296333 -0.0233,0 0.0869,-0.13335 0.24488,-0.296333 z m 2.70934,-2.709333 c 0.15797,-0.162984 0.30626,-0.296334 0.32955,-0.296334 0.0233,0 -0.0869,0.13335 -0.24489,0.296334 -0.15797,0.162983 -0.30626,0.296333 -0.32955,0.296333 -0.0233,0 0.0869,-0.13335 0.24489,-0.296333 z m -42.564558,0.06833 c 0.08238,-0.02147 0.196678,-0.02005 0.254,0.0031 0.05732,0.02319 -0.01008,0.04076 -0.149778,0.03903 -0.1397,-0.0017 -0.1866,-0.0207 -0.104222,-0.04217 z m 43.453558,-1.041993 c 0.0843,-0.09313 0.17229,-0.169334 0.19558,-0.169334 0.0233,0 -0.0266,0.0762 -0.11092,0.169334 -0.0843,0.09313 -0.17229,0.169333 -0.19557,0.169333 -0.0233,0 0.0266,-0.0762 0.11091,-0.169333 z m 0.46566,-0.539967 c 0,-0.01758 0.0667,-0.08426 0.14817,-0.148167 0.13429,-0.105314 0.13728,-0.102319 0.032,0.03197 -0.11061,0.141034 -0.18014,0.185884 -0.18014,0.1162 z m 0.508,-0.592667 c 0,-0.01758 0.0667,-0.08426 0.14817,-0.148166 0.13429,-0.105315 0.13728,-0.10232 0.032,0.03197 -0.11061,0.141034 -0.18014,0.185884 -0.18014,0.1162 z m 0.42334,-0.508 c 0,-0.01758 0.0667,-0.08426 0.14816,-0.148166 0.13429,-0.105315 0.13728,-0.10232 0.032,0.03197 -0.11061,0.141034 -0.18013,0.185884 -0.18013,0.1162 z m 0.33866,-0.423333 c 0,-0.01758 0.0667,-0.08426 0.14817,-0.148167 0.13429,-0.105314 0.13728,-0.102319 0.032,0.03197 -0.11061,0.141034 -0.18014,0.185884 -0.18014,0.1162 z m 0.33867,-0.423333 c 0,-0.01758 0.0667,-0.08426 0.14817,-0.148167 0.13428,-0.105314 0.13728,-0.10232 0.032,0.03197 -0.1106,0.141033 -0.18013,0.185884 -0.18013,0.1162 z M 76.012661,85.143951 c -0.105315,-0.134286 -0.10232,-0.137281 0.03197,-0.03197 0.08149,0.06391 0.148167,0.130586 0.148167,0.148167 0,0.06968 -0.06953,0.02483 -0.180133,-0.1162 z m -1.726632,-1.566333 -0.760235,-0.783167 0.783167,0.760235 c 0.727387,0.706088 0.821707,0.806098 0.760234,0.806098 -0.01261,0 -0.365037,-0.352425 -0.783166,-0.783166 z m -1.152035,-1.227667 c -0.105314,-0.134287 -0.10232,-0.137281 0.03197,-0.03197 0.08149,0.06391 0.148166,0.130586 0.148166,0.148167 0,0.06968 -0.06953,0.02483 -0.180133,-0.1162 z m -1.280367,-6.342573 c 0.05821,-0.02349 0.153459,-0.02349 0.211667,0 0.05821,0.02349 0.01058,0.0427 -0.105833,0.0427 -0.116417,0 -0.164042,-0.01922 -0.105834,-0.0427 z m 2.54,0 c 0.05821,-0.02349 0.153459,-0.02349 0.211667,0 0.05821,0.02349 0.01058,0.0427 -0.105833,0.0427 -0.116417,0 -0.164042,-0.01922 -0.105834,-0.0427 z m -4.815633,-4.918094 c -0.105314,-0.134287 -0.10232,-0.137281 0.03197,-0.03197 0.08149,0.06391 0.148166,0.130586 0.148166,0.148167 0,0.06968 -0.06953,0.02483 -0.180133,-0.1162 z m -0.714193,-0.635 -0.248674,-0.275167 0.275167,0.248674 c 0.256494,0.231798 0.314084,0.301659 0.248674,0.301659 -0.01457,0 -0.138397,-0.123825 -0.275167,-0.275166 z m -1.100667,-1.100667 -0.248673,-0.275167 0.275166,0.248674 c 0.256495,0.231799 0.314084,0.30166 0.248674,0.30166 -0.01457,0 -0.138396,-0.123825 -0.275167,-0.275167 z M 67.122661,68.63395 c -0.105314,-0.134286 -0.10232,-0.137281 0.03197,-0.03197 0.08149,0.06391 0.148167,0.130586 0.148167,0.148167 0,0.06968 -0.06953,0.02483 -0.180133,-0.1162 z m 3.545633,-10.49124 c 0.05821,-0.02349 0.153458,-0.02349 0.211667,0 0.05821,0.02349 0.01058,0.0427 -0.105834,0.0427 -0.116416,0 -0.164041,-0.01922 -0.105833,-0.0427 z m -8.100149,-0.755316 c 0.0041,-0.09863 0.02412,-0.118694 0.05115,-0.05115 0.02446,0.06112 0.02145,0.134145 -0.0067,0.162278 -0.02813,0.02813 -0.04815,-0.02187 -0.04447,-0.111125 z m 7.179182,-0.522111 c -0.105314,-0.134286 -0.102319,-0.137281 0.03197,-0.03197 0.141033,0.110606 0.185884,0.180134 0.1162,0.180134 -0.01758,0 -0.08426,-0.06667 -0.148167,-0.148167 z m -0.797517,-0.719667 -0.334683,-0.359833 0.359834,0.334683 c 0.334641,0.311252 0.39874,0.384984 0.334683,0.384984 -0.01383,0 -0.175758,-0.161925 -0.359834,-0.359834 z m -0.931333,-0.931333 -0.334683,-0.359833 0.359833,0.334683 c 0.334642,0.311251 0.398741,0.384983 0.334683,0.384983 -0.01383,0 -0.175757,-0.161925 -0.359833,-0.359833 z m 77.014993,-0.282222 c 0.004,-0.09863 0.0241,-0.118694 0.0512,-0.05115 0.0245,0.06112 0.0214,0.134144 -0.007,0.162278 -0.0281,0.02813 -0.0482,-0.02187 -0.0445,-0.111125 z M 67.291994,54.40995 c -0.105314,-0.134287 -0.10232,-0.137282 0.03197,-0.03197 0.08149,0.06391 0.148166,0.130585 0.148166,0.148166 0,0.06969 -0.06953,0.02483 -0.180133,-0.116199 z m 77.826146,-0.493889 c 0.004,-0.09863 0.0241,-0.118694 0.0512,-0.05115 0.0245,0.06112 0.0215,0.134144 -0.007,0.162278 -0.0281,0.02813 -0.0481,-0.02187 -0.0445,-0.111125 z m 0.0976,-1.474612 c 0,-0.162983 0.0174,-0.229658 0.0387,-0.148166 0.0213,0.08149 0.0213,0.214841 0,0.296333 -0.0213,0.08149 -0.0387,0.01482 -0.0387,-0.148167 z m -40.00348,-0.05607 c 0.0582,-0.02349 0.15346,-0.02349 0.21167,0 0.0582,0.02349 0.0106,0.0427 -0.10583,0.0427 -0.11642,0 -0.16404,-0.01922 -0.10584,-0.0427 z m -1.09537,-0.08643 c 0.0611,-0.02446 0.13414,-0.02145 0.16228,0.0067 0.0281,0.02813 -0.0219,0.04815 -0.11113,0.04447 -0.0986,-0.0041 -0.11869,-0.02413 -0.0512,-0.05115 z m -0.93133,-0.08467 c 0.0611,-0.02446 0.13414,-0.02145 0.16227,0.0067 0.0281,0.02813 -0.0219,0.04815 -0.11112,0.04447 -0.0986,-0.0041 -0.1187,-0.02412 -0.0511,-0.05115 z m -0.762,-0.08467 c 0.0611,-0.02446 0.13414,-0.02145 0.16227,0.0067 0.0281,0.02813 -0.0219,0.04814 -0.11112,0.04447 -0.0986,-0.0041 -0.1187,-0.02412 -0.0511,-0.05115 z m 3.32455,-2.023552 c 0.004,-0.09863 0.0241,-0.118694 0.0512,-0.05115 0.0245,0.06112 0.0215,0.134144 -0.007,0.162278 -0.0281,0.02813 -0.0481,-0.02187 -0.0445,-0.111125 z m -0.0748,-1.008945 c 0.002,-0.1397 0.0207,-0.1866 0.0422,-0.104222 0.0215,0.08238 0.02,0.196678 -0.003,0.254 -0.0232,0.05732 -0.0408,-0.01008 -0.039,-0.149778 z m 39.52283,-1.180336 c 0,-0.160235 0.0293,-0.309431 0.065,-0.331546 0.0358,-0.02211 0.0508,0.108987 0.0335,0.291337 -0.0391,0.409398 -0.0985,0.43367 -0.0985,0.04021 z m -39.52597,-1.147997 c 0,-0.116417 0.0192,-0.164042 0.0427,-0.105834 0.0235,0.05821 0.0235,0.153459 0,0.211667 -0.0235,0.05821 -0.0427,0.01058 -0.0427,-0.105833 z m 41.81197,-0.878634 c 0,-0.01758 0.0667,-0.08426 0.14816,-0.148167 0.13429,-0.105314 0.13728,-0.102319 0.032,0.03197 -0.1106,0.141034 -0.18013,0.185884 -0.18013,0.1162 z m 0.71966,-0.645367 c 0.0843,-0.09313 0.1723,-0.169333 0.19558,-0.169333 0.0233,0 -0.0266,0.0762 -0.11091,0.169333 -0.0843,0.09313 -0.1723,0.169334 -0.19558,0.169334 -0.0233,0 0.0266,-0.0762 0.11091,-0.169334 z m 1.016,-0.931333 c 0.18188,-0.186267 0.34975,-0.338667 0.37304,-0.338667 0.0233,0 -0.10649,0.1524 -0.28837,0.338667 -0.18188,0.186267 -0.34975,0.338667 -0.37303,0.338667 -0.0233,0 0.10648,-0.1524 0.28836,-0.338667 z M 62.822145,44.094727 c 0.0041,-0.09863 0.02412,-0.118694 0.05115,-0.05115 0.02446,0.06112 0.02145,0.134143 -0.0067,0.162278 -0.02813,0.02813 -0.04814,-0.02187 -0.04447,-0.111125 z m -0.08467,-0.846667 c 0.0041,-0.09863 0.02412,-0.118694 0.05115,-0.05115 0.02446,0.06112 0.02145,0.134144 -0.0067,0.162278 -0.02813,0.02813 -0.04815,-0.02187 -0.04447,-0.111125 z m 88.173655,-0.627944 c 0.18188,-0.186267 0.34975,-0.338667 0.37303,-0.338667 0.0233,0 -0.10649,0.1524 -0.28837,0.338667 -0.18188,0.186266 -0.34975,0.338666 -0.37303,0.338666 -0.0233,0 0.10649,-0.1524 0.28837,-0.338666 z m 0.84666,-0.931334 c 0.0843,-0.09313 0.1723,-0.169333 0.19558,-0.169333 0.0233,0 -0.0266,0.0762 -0.11091,0.169333 -0.0843,0.09313 -0.1723,0.169334 -0.19558,0.169334 -0.0233,0 0.0266,-0.0762 0.11091,-0.169334 z m 0.46567,-0.539966 c 0,-0.01758 0.0667,-0.08426 0.14817,-0.148167 0.13429,-0.105314 0.13728,-0.10232 0.032,0.03197 -0.11061,0.141033 -0.18014,0.185884 -0.18014,0.1162 z m 0.42333,-0.508 c 0,-0.01758 0.0667,-0.08426 0.14817,-0.148167 0.13429,-0.105315 0.13728,-0.10232 0.032,0.03197 -0.11061,0.141033 -0.18014,0.185884 -0.18014,0.1162 z M 62.737478,40.20006 c 0.0041,-0.09863 0.02412,-0.118694 0.05115,-0.05115 0.02446,0.06112 0.02145,0.134144 -0.0067,0.162278 -0.02813,0.02813 -0.04815,-0.02187 -0.04447,-0.111125 z m 10.565849,-0.437444 c -0.105314,-0.134287 -0.102319,-0.137282 0.03197,-0.03197 0.08149,0.06391 0.148167,0.130585 0.148167,0.148166 0,0.06968 -0.06953,0.02483 -0.180134,-0.116199 z m -0.508,-0.423334 c -0.105314,-0.134286 -0.102319,-0.137281 0.03197,-0.03197 0.08149,0.06391 0.148167,0.130586 0.148167,0.148167 0,0.06968 -0.06953,0.02483 -0.180134,-0.1162 z m -0.547577,-0.465666 -0.161289,-0.190501 0.1905,0.16129 c 0.179022,0.151572 0.229043,0.219711 0.161289,0.219711 -0.01607,0 -0.101792,-0.08572 -0.1905,-0.1905 z m 74.17604,-0.317501 c 0.0843,-0.09313 0.1723,-0.169333 0.19558,-0.169333 0.0233,0 -0.0266,0.0762 -0.11091,0.169333 -0.0843,0.09313 -0.1723,0.169334 -0.19558,0.169334 -0.0233,0 0.0266,-0.0762 0.11091,-0.169334 z m -74.853374,-0.275166 -0.161289,-0.1905 0.1905,0.161289 c 0.179023,0.151572 0.229044,0.219711 0.161289,0.219711 -0.01607,0 -0.101791,-0.08572 -0.1905,-0.1905 z m 75.996374,-0.783167 c 0.29999,-0.302683 0.56449,-0.550333 0.58778,-0.550333 0.0233,0 -0.20312,0.24765 -0.50311,0.550333 -0.29999,0.302683 -0.56449,0.550333 -0.58777,0.550333 -0.0233,0 0.20311,-0.24765 0.5031,-0.550333 z m -76.966554,-0.105833 -0.291775,-0.3175 0.3175,0.291775 c 0.174625,0.160477 0.3175,0.303352 0.3175,0.317501 0,0.06465 -0.07165,0.0037 -0.343225,-0.291776 z m 84.332554,0.148166 c 0,-0.04657 0.0404,-0.08467 0.0897,-0.08467 0.0493,0 0.0661,0.0381 0.0373,0.08467 -0.0288,0.04657 -0.0691,0.08467 -0.0897,0.08467 -0.0205,0 -0.0373,-0.0381 -0.0373,-0.08467 z m -6.43466,-1.047966 c 0,-0.01758 0.0667,-0.08426 0.14816,-0.148167 0.13429,-0.105314 0.13728,-0.102319 0.032,0.03197 -0.1106,0.141033 -0.18013,0.185884 -0.18013,0.1162 z m 0.42333,-0.508 c 0,-0.01758 0.0667,-0.08426 0.14817,-0.148167 0.13429,-0.105314 0.13728,-0.102319 0.032,0.03197 -0.11061,0.141033 -0.18014,0.185884 -0.18014,0.1162 z m -38.481,-0.984034 c 0.0843,-0.09313 0.1723,-0.169333 0.19558,-0.169333 0.0233,0 -0.0266,0.0762 -0.11091,0.169333 -0.0843,0.09313 -0.1723,0.169334 -0.19558,0.169334 -0.0233,0 0.0266,-0.0762 0.11091,-0.169334 z m -42.634224,-0.402166 -0.291775,-0.3175 0.3175,0.291775 c 0.295522,0.271578 0.356429,0.343225 0.291775,0.343225 -0.01415,0 -0.157023,-0.142875 -0.3175,-0.3175 z m 43.604354,-0.635 c 0.35085,-0.37382 0.42687,-0.441037 0.42687,-0.377462 0,0.01359 -0.18097,0.194563 -0.40217,0.402167 l -0.40216,0.377461 z m -44.49684,-0.338667 -0.161289,-0.1905 0.1905,0.161289 c 0.179023,0.151572 0.229043,0.219711 0.161289,0.219711 -0.01607,0 -0.101791,-0.08573 -0.1905,-0.1905 z m 71.8413,-0.296333 -0.20526,-0.232834 0.23284,0.205259 c 0.21761,0.191845 0.27166,0.260408 0.20526,0.260408 -0.0152,0 -0.11995,-0.104775 -0.23284,-0.232833 z m -72.433967,-0.381 -0.161289,-0.1905 0.1905,0.161289 c 0.179023,0.151571 0.229044,0.219711 0.161289,0.219711 -0.01607,0 -0.101791,-0.08572 -0.1905,-0.1905 z m 46.151377,0.02117 c 0.0843,-0.09313 0.1723,-0.169333 0.19558,-0.169333 0.0233,0 -0.0266,0.0762 -0.11091,0.169333 -0.0843,0.09313 -0.1723,0.169334 -0.19558,0.169334 -0.0233,0 0.0266,-0.0762 0.11091,-0.169334 z m 25.60087,-0.232833 c -0.10532,-0.134286 -0.10232,-0.137281 0.032,-0.03197 0.0815,0.06391 0.14817,0.130585 0.14817,0.148166 0,0.06968 -0.0695,0.02483 -0.18013,-0.1162 z M 65.852661,32.396615 c -0.105314,-0.134286 -0.10232,-0.137281 0.03197,-0.03197 0.141034,0.110606 0.185884,0.180133 0.116201,0.180133 -0.01758,0 -0.08426,-0.06667 -0.148167,-0.148167 z m -0.371054,-0.445881 c -0.02925,-0.04733 -0.09453,-0.06049 -0.145078,-0.02925 -0.05617,0.03472 -0.06743,0.0172 -0.02895,-0.04506 0.04821,-0.078 0.09094,-0.07863 0.182415,-0.0027 0.11982,0.09944 0.151867,0.163077 0.08213,0.163077 -0.02053,0 -0.06127,-0.03872 -0.09052,-0.08605 z m 57.769983,-3.697123 c 0.0611,-0.02446 0.13414,-0.02145 0.16227,0.0067 0.0281,0.02813 -0.0219,0.04814 -0.11112,0.04447 -0.0986,-0.0041 -0.1187,-0.02412 -0.0512,-0.05115 z m 0.96998,-0.0855 c 0.0824,-0.02147 0.19668,-0.02005 0.254,0.0031 0.0573,0.02319 -0.0101,0.04076 -0.14978,0.03903 -0.1397,-0.0017 -0.1866,-0.0207 -0.10422,-0.04217 z m 2.20133,0 c 0.0824,-0.02147 0.19668,-0.02005 0.254,0.0031 0.0573,0.02319 -0.0101,0.04076 -0.14977,0.03903 -0.1397,-0.0017 -0.1866,-0.0207 -0.10423,-0.04217 z"
         id="path48" />
      <path
         style="fill:#ff0000;fill-opacity:1;stroke-width:0.0846667"
         d="m 85.675461,106.40891 c -0.162984,-0.0178 -0.829734,-0.0736 -1.481667,-0.12385 -7.597963,-0.58623 -15.795089,-3.09865 -22.563667,-6.915771 -1.170151,-0.659904 -2.807601,-1.647563 -2.775049,-1.673825 0.01286,-0.01037 0.328183,0.02075 0.700716,0.06917 0.372533,0.04842 2.067983,0.09019 3.767667,0.09282 2.466803,0.0038 3.346578,-0.02587 4.360333,-0.147109 7.271732,-0.869685 13.535482,-3.30361 19.291636,-7.49621 l 1.003637,-0.731017 -0.326304,-0.05862 c -0.179466,-0.03224 -0.511913,-0.06082 -0.73877,-0.0635 -0.226857,-0.0027 -0.817407,-0.06386 -1.312333,-0.135943 -4.239125,-0.61742 -7.963456,-2.44868 -11.005622,-5.41148 -1.683856,-1.639928 -2.973896,-3.3804 -3.928675,-5.300418 -0.420346,-0.845297 -1.184903,-2.710261 -1.132553,-2.76261 0.01025,-0.01025 0.359968,0.03872 0.777146,0.108839 1.099397,0.184772 3.519047,0.248538 4.737838,0.124857 1.022973,-0.103809 2.309154,-0.32441 3.008778,-0.516054 l 0.377889,-0.103512 -1.073779,-0.283894 C 72.942033,73.912015 69.210016,71.38626 66.458313,67.700918 64.118034,64.566595 62.785005,60.828081 62.589654,56.851172 l -0.0558,-1.135944 0.458303,0.260376 c 1.055676,0.599762 3.137416,1.374535 4.598295,1.711376 1.249529,0.288108 3.861008,0.620497 3.861008,0.491429 0,-0.02401 -0.352425,-0.30886 -0.783167,-0.632993 -3.623235,-2.72648 -6.217294,-6.600629 -7.308823,-10.915503 -0.477309,-1.886831 -0.585369,-2.803368 -0.582558,-4.941131 0.0019,-1.408194 0.0423,-2.158923 0.155082,-2.878667 0.303797,-1.938678 0.915826,-3.91564 1.743043,-5.630333 0.737474,-1.528671 0.57425,-1.50515 1.65615,-0.238661 1.163207,1.361669 3.646416,3.898182 5.035606,5.143702 9.470348,8.49092 21.367696,13.517218 33.900907,14.322189 l 0.92323,0.0593 -0.0603,-0.287596 c -0.6492,-3.095697 -0.59672,-6.079141 0.15995,-9.092931 1.70025,-6.77206 6.95875,-12.206225 13.68512,-14.142277 6.8067,-1.959175 14.03236,-0.149391 19.25144,4.821838 l 0.67733,0.645167 0.82633,-0.174957 c 3.60719,-0.763743 7.90262,-2.412918 11.13284,-4.274315 0.29104,-0.167711 0.52916,-0.286941 0.52916,-0.264955 0,0.151012 -0.6863,1.795866 -1.10018,2.636832 -1.48512,3.017548 -3.93745,5.791678 -6.80866,7.702115 -0.39994,0.266109 -0.72716,0.493485 -0.72716,0.505282 0,0.04357 1.68605,-0.210323 2.794,-0.420741 2.34647,-0.445629 5.01501,-1.225466 7.20209,-2.1047 0.62567,-0.251525 1.15213,-0.443565 1.16991,-0.426757 0.0516,0.04877 -1.29413,1.889967 -2.07978,2.845544 -2.07284,2.521165 -4.29963,4.678861 -6.78373,6.573249 l -0.78785,0.600817 -0.0285,2.903596 c -0.0356,3.638056 -0.21539,5.646674 -0.81679,9.126596 -2.10314,12.169687 -8.4256,23.99203 -17.21864,32.197044 -9.01512,8.412237 -19.68978,13.146147 -32.51509,14.419507 -1.265741,0.12567 -8.194246,0.24418 -9.017,0.15424 z"
         id="path46" />
    </g>
    <path
       style="fill:#000000;stroke-width:0.0846667"
       id="path42"
       d="" />
    <path
       style="fill:#000000;stroke-width:0.0846667"
       id="path40"
       d="" />
    <path
       style="fill:#000000;stroke-width:0.0846667"
       id="path38"
       d="" />
  </g>
</svg>
