<?xml version="1.0" encoding="UTF-8" standalone="no"?>
<svg
   xmlns:dc="http://purl.org/dc/elements/1.1/"
   xmlns:cc="http://creativecommons.org/ns#"
   xmlns:rdf="http://www.w3.org/1999/02/22-rdf-syntax-ns#"
   xmlns:svg="http://www.w3.org/2000/svg"
   xmlns="http://www.w3.org/2000/svg"
   xmlns:sodipodi="http://sodipodi.sourceforge.net/DTD/sodipodi-0.dtd"
   xmlns:inkscape="http://www.inkscape.org/namespaces/inkscape"
   width="200"
   height="200"
   viewBox="0 0 52.916665 52.916668"
   version="1.1"
   id="svg8"
   inkscape:version="1.0.2 (e86c870879, 2021-01-15, custom)"
   sodipodi:docname="youtube.svg">
  <defs
     id="defs2" />
  <sodipodi:namedview
     id="base"
     pagecolor="#ffffff"
     bordercolor="#666666"
     borderopacity="1.0"
     inkscape:pageopacity="0.0"
     inkscape:pageshadow="2"
     inkscape:zoom="0.7"
     inkscape:cx="555.47999"
     inkscape:cy="519.13475"
     inkscape:document-units="mm"
     inkscape:current-layer="layer1"
     inkscape:document-rotation="0"
     showgrid="false"
     inkscape:window-width="1254"
     inkscape:window-height="1041"
     inkscape:window-x="0"
     inkscape:window-y="0"
     inkscape:window-maximized="0"
     units="px" />
  <metadata
     id="metadata5">
    <rdf:RDF>
      <cc:Work
         rdf:about="">
        <dc:format>image/svg+xml</dc:format>
        <dc:type
           rdf:resource="http://purl.org/dc/dcmitype/StillImage" />
        <dc:title></dc:title>
      </cc:Work>
    </rdf:RDF>
  </metadata>
  <g
     inkscape:label="Ebene 1"
     inkscape:groupmode="layer"
     id="layer1">
    <path
       style="fill:#000000;stroke-width:0.0846667"
       id="path42"
       d="" />
    <path
       style="fill:#000000;stroke-width:0.0846667"
       id="path40"
       d="" />
    <path
       style="fill:#000000;stroke-width:0.0846667"
       id="path38"
       d="" />
    <g
       id="g66"
       transform="matrix(0.35277942,0,0,0.35235379,-10.401457,-7.1225247)"
       style="fill:#ff0000">
      <path
         style="fill:#ff0000;fill-opacity:1;stroke-width:0.169333"
         d="m 57.535181,170.29144 c 0.122236,-0.0489 0.268286,-0.0429 0.324556,0.0134 0.05627,0.0563 -0.04375,0.0963 -0.22225,0.0889 -0.197265,-0.008 -0.237389,-0.0482 -0.102306,-0.1023 z m 93.641329,0 c 0.12224,-0.0489 0.26829,-0.0429 0.32456,0.0134 0.0563,0.0563 -0.0437,0.0963 -0.22225,0.0889 -0.19727,-0.008 -0.23739,-0.0482 -0.10231,-0.1023 z m 17.47308,-7.39893 c 0,-0.0352 0.13335,-0.16851 0.29634,-0.29633 0.26857,-0.21063 0.27456,-0.20464 0.0639,0.0639 -0.22121,0.28207 -0.36027,0.37177 -0.36027,0.2324 z M 39.595998,162.32144 c -0.210628,-0.26857 -0.204639,-0.27456 0.06393,-0.0639 0.162983,0.12782 0.296333,0.26117 0.296333,0.29633 0,0.13937 -0.139054,0.0497 -0.360266,-0.2324 z m -2.201333,-2.20133 c -0.210629,-0.26857 -0.204639,-0.27456 0.06393,-0.0639 0.282066,0.22121 0.371768,0.36026 0.232401,0.36026 -0.03516,0 -0.168514,-0.13335 -0.296334,-0.29633 z m 134.133595,-0.10627 c 0,-0.0352 0.13335,-0.16851 0.29633,-0.29633 0.26858,-0.21063 0.27457,-0.20464 0.0639,0.0639 -0.22121,0.28207 -0.36027,0.37177 -0.36027,0.2324 z m -57.61849,-44.66108 c 0.11487,-0.11572 0.2515,-0.16775 0.30364,-0.11562 0.0521,0.0521 -0.0418,0.14682 -0.20884,0.21041 -0.24134,0.0919 -0.26079,0.0724 -0.0948,-0.0948 z m 3.26249,-1.74507 c 0,-0.0466 0.1524,-0.16623 0.33867,-0.26592 0.18627,-0.0997 0.33867,-0.14314 0.33867,-0.0966 0,0.0466 -0.1524,0.16623 -0.33867,0.26592 -0.18627,0.0997 -0.33867,0.14315 -0.33867,0.0966 z m 5.24934,-2.87867 c 0,-0.0466 0.1524,-0.16623 0.33866,-0.26591 0.18627,-0.0997 0.33867,-0.14315 0.33867,-0.0966 0,0.0466 -0.1524,0.16622 -0.33867,0.26591 -0.18626,0.0997 -0.33866,0.14315 -0.33866,0.0966 z m 3.38666,-1.86266 c 0,-0.0466 0.1524,-0.16623 0.33867,-0.26592 0.18627,-0.0997 0.33867,-0.14315 0.33867,-0.0966 0,0.0466 -0.1524,0.16623 -0.33867,0.26591 -0.18627,0.0997 -0.33867,0.14315 -0.33867,0.0966 z m 1.86267,-1.016 c 0,-0.0466 0.1524,-0.16623 0.33867,-0.26592 0.18626,-0.0997 0.33866,-0.14315 0.33866,-0.0966 0,0.0466 -0.1524,0.16623 -0.33866,0.26591 -0.18627,0.0997 -0.33867,0.14315 -0.33867,0.0966 z m 3.38667,-1.86267 c 0,-0.0466 0.1524,-0.16623 0.33866,-0.26592 0.18627,-0.0997 0.33867,-0.14315 0.33867,-0.0966 0,0.0466 -0.1524,0.16623 -0.33867,0.26592 -0.18626,0.0997 -0.33866,0.14315 -0.33866,0.0966 z m 1.86266,-1.016 c 0,-0.0466 0.1524,-0.16623 0.33867,-0.26592 0.18627,-0.0997 0.33867,-0.14315 0.33867,-0.0966 0,0.0466 -0.1524,0.16623 -0.33867,0.26592 -0.18627,0.0997 -0.33867,0.14315 -0.33867,0.0966 z m 3.38667,-1.86267 c 0,-0.0466 0.1524,-0.16623 0.33867,-0.26591 0.18626,-0.0997 0.33866,-0.14315 0.33866,-0.0966 0,0.0466 -0.1524,0.16623 -0.33866,0.26592 -0.18627,0.0997 -0.33867,0.14315 -0.33867,0.0966 z m 1.86267,-1.016 c 0,-0.0466 0.1524,-0.16623 0.33866,-0.26591 0.18627,-0.0997 0.33867,-0.14315 0.33867,-0.0966 0,0.0466 -0.1524,0.16623 -0.33867,0.26592 -0.18626,0.0997 -0.33866,0.14315 -0.33866,0.0966 z m 3.38666,-1.86266 c 0,-0.0466 0.1524,-0.16623 0.33867,-0.265919 0.18627,-0.09969 0.33867,-0.14315 0.33867,-0.09658 0,0.04657 -0.1524,0.166229 -0.33867,0.265909 -0.18627,0.0997 -0.33867,0.14315 -0.33867,0.0966 z m 5.24934,-2.87867 c 0,-0.04657 0.1524,-0.166229 0.33866,-0.265916 0.18627,-0.09969 0.33867,-0.143149 0.33867,-0.09658 0,0.04657 -0.1524,0.16623 -0.33867,0.265916 -0.18626,0.09969 -0.33866,0.14315 -0.33866,0.09658 z m -2.29597,-5.439925 c -0.31564,-0.252881 -0.31357,-0.256006 0.0523,-0.07871 0.20955,0.101548 0.381,0.220051 0.381,0.263341 0,0.129577 -0.0878,0.09216 -0.4333,-0.184633 z m -5.24934,-2.878667 c -0.31564,-0.25288 -0.31356,-0.256006 0.0523,-0.07871 0.20955,0.101547 0.381,0.22005 0.381,0.26334 0,0.129577 -0.0878,0.09216 -0.43331,-0.184633 z m -5.24933,-2.878666 c -0.31564,-0.252881 -0.31356,-0.256007 0.0523,-0.07871 0.20955,0.101547 0.381,0.22005 0.381,0.26334 0,0.129578 -0.0878,0.09216 -0.4333,-0.184632 z m -5.24933,-2.878667 c -0.31564,-0.252881 -0.31357,-0.256007 0.0523,-0.07871 0.20955,0.101548 0.381,0.22005 0.381,0.263341 0,0.129577 -0.0878,0.09216 -0.4333,-0.184633 z m -5.24934,-2.878667 c -0.31564,-0.25288 -0.31356,-0.256006 0.0523,-0.07871 0.20955,0.101548 0.381,0.220051 0.381,0.263341 0,0.129577 -0.0878,0.09216 -0.43331,-0.184633 z m -5.24933,-2.878667 c -0.31564,-0.25288 -0.31356,-0.256006 0.0523,-0.07871 0.20955,0.101547 0.381,0.22005 0.381,0.26334 0,0.129577 -0.0878,0.09216 -0.4333,-0.184633 z m -3.38667,-1.862666 c -0.31564,-0.252881 -0.31356,-0.256007 0.0523,-0.07871 0.20955,0.101547 0.381,0.22005 0.381,0.26334 0,0.129578 -0.0878,0.09216 -0.43331,-0.184632 z m 64.45467,-26.928769 c 0.008,-0.197265 0.0482,-0.237389 0.10231,-0.102306 0.0489,0.122236 0.0429,0.268286 -0.0134,0.324556 -0.0563,0.05627 -0.0963,-0.04375 -0.0889,-0.22225 z m -8.16297,-18.485557 c -0.21062,-0.268572 -0.20463,-0.274561 0.0639,-0.06393 0.28207,0.221211 0.37177,0.360266 0.2324,0.360266 -0.0352,0 -0.16851,-0.13335 -0.29634,-0.296334 z M 37.754931,30.135173 c 0,-0.03516 0.13335,-0.168513 0.296333,-0.296333 0.268573,-0.210629 0.274562,-0.20464 0.06393,0.06393 -0.221212,0.282066 -0.360266,0.371767 -0.360266,0.2324 z m 1.185333,-1.185333 c 0,-0.03516 0.13335,-0.168513 0.296334,-0.296333 0.268572,-0.210629 0.274561,-0.20464 0.06393,0.06393 -0.221211,0.282067 -0.360266,0.371768 -0.360266,0.232401 z M 169.30533,28.378773 c -0.21063,-0.268573 -0.20464,-0.274562 0.0639,-0.06393 0.16298,0.12782 0.29633,0.26117 0.29633,0.296333 0,0.139367 -0.13905,0.04967 -0.36026,-0.2324 z M 58.043181,20.262098 c 0.122236,-0.04892 0.268286,-0.0429 0.324556,0.01337 0.05627,0.05627 -0.04375,0.09629 -0.22225,0.08894 -0.197265,-0.0081 -0.237389,-0.04825 -0.102306,-0.102306 z m 92.625329,0 c 0.12224,-0.04892 0.26829,-0.0429 0.32456,0.01337 0.0563,0.05627 -0.0437,0.09629 -0.22225,0.08894 -0.19727,-0.0081 -0.23739,-0.04825 -0.10231,-0.102306 z"
         id="path78" />
      <path
         style="fill:#ff0000;fill-opacity:1;stroke-width:0.169333"
         d="m 58.043181,170.29144 c 0.122236,-0.0489 0.268286,-0.0429 0.324556,0.0134 0.05627,0.0563 -0.04375,0.0963 -0.22225,0.0889 -0.197265,-0.008 -0.237389,-0.0482 -0.102306,-0.1023 z m 92.625329,0 c 0.12224,-0.0489 0.26829,-0.0429 0.32456,0.0134 0.0563,0.0563 -0.0437,0.0963 -0.22225,0.0889 -0.19727,-0.008 -0.23739,-0.0482 -0.10231,-0.1023 z M 38.516931,29.352439 c 0.168569,-0.186266 0.344589,-0.338666 0.391156,-0.338666 0.04657,0 -0.05325,0.1524 -0.221823,0.338666 -0.168568,0.186267 -0.344589,0.338667 -0.391155,0.338667 -0.04657,0 0.05325,-0.1524 0.221822,-0.338667 z m 20.03425,-9.090341 c 0.122236,-0.04892 0.268286,-0.0429 0.324556,0.01337 0.05627,0.05627 -0.04375,0.09629 -0.22225,0.08894 -0.197265,-0.0081 -0.237389,-0.04825 -0.102306,-0.102306 z m 91.609329,0 c 0.12224,-0.04892 0.26829,-0.0429 0.32456,0.01337 0.0563,0.05627 -0.0438,0.09629 -0.22225,0.08894 -0.19727,-0.0081 -0.23739,-0.04825 -0.10231,-0.102306 z"
         id="path76" />
      <path
         style="fill:#ff0000;fill-opacity:1;stroke-width:0.169333"
         d="m 150.45715,95.342804 c 0.0636,-0.167 0.15827,-0.26098 0.21041,-0.208844 0.0521,0.05214 1.1e-4,0.188771 -0.11562,0.303637 -0.16724,0.16599 -0.18669,0.146541 -0.0948,-0.09479 z M 40.294931,27.764507 c 0,-0.03516 0.13335,-0.168514 0.296333,-0.296334 0.268573,-0.210629 0.274562,-0.204639 0.06393,0.06393 -0.221212,0.282066 -0.360266,0.371768 -0.360266,0.232401 z"
         id="path74" />
      <path
         style="fill:#ff0000;fill-opacity:1;stroke-width:0.169333"
         d="m 58.551181,170.29144 c 0.122236,-0.0489 0.268286,-0.0429 0.324556,0.0134 0.05627,0.0563 -0.04375,0.0963 -0.22225,0.0889 -0.197265,-0.008 -0.237389,-0.0482 -0.102306,-0.1023 z m 91.609329,0 c 0.12224,-0.0489 0.26829,-0.0429 0.32456,0.0134 0.0563,0.0563 -0.0438,0.0963 -0.22225,0.0889 -0.19727,-0.008 -0.23739,-0.0482 -0.10231,-0.1023 z M 29.490609,140.51978 c 0.0035,-0.27941 0.0414,-0.37321 0.08433,-0.20845 0.04293,0.16476 0.04011,0.39336 -0.0063,0.508 -0.04638,0.11464 -0.08151,-0.0202 -0.07806,-0.29955 z m -0.0063,-90.33934 c 0,-0.232834 0.03843,-0.328084 0.08541,-0.211667 0.04697,0.116417 0.04697,0.306917 0,0.423333 -0.04697,0.116417 -0.08541,0.02117 -0.08541,-0.211666 z M 59.387264,20.258268 c 0.20955,-0.04036 0.55245,-0.04036 0.762,0 0.20955,0.04036 0.0381,0.07338 -0.381,0.07338 -0.4191,0 -0.59055,-0.03302 -0.381,-0.07338 z m 89.494996,-0.002 c 0.25739,-0.03892 0.63839,-0.03788 0.84666,0.0023 0.20827,0.04019 -0.002,0.07204 -0.46799,0.07077 -0.46567,-0.0013 -0.63607,-0.03416 -0.37867,-0.07308 z"
         id="path72" />
      <path
         style="fill:#ff0000;fill-opacity:1;stroke-width:0.169333"
         d="m 168.14159,163.23118 c 0,-0.0352 0.13335,-0.16852 0.29634,-0.29634 0.26857,-0.21063 0.27456,-0.20464 0.0639,0.0639 -0.22121,0.28206 -0.36027,0.37176 -0.36027,0.2324 z m -127.947414,-0.4864 -0.322578,-0.381 0.381,0.32257 c 0.358046,0.30315 0.458087,0.43943 0.322578,0.43943 -0.03213,0 -0.203582,-0.17145 -0.381,-0.381 z m 130.064084,-1.48167 c 0.16857,-0.18627 0.34459,-0.33867 0.39116,-0.33867 0.0466,0 -0.0533,0.1524 -0.22183,0.33867 -0.16856,0.18627 -0.34459,0.33867 -0.39115,0.33867 -0.0466,0 0.0532,-0.1524 0.22182,-0.33867 z m -133.202261,-1.651 c -0.210629,-0.26857 -0.20464,-0.27456 0.06393,-0.0639 0.282067,0.22121 0.371768,0.36026 0.232401,0.36026 -0.03516,0 -0.168513,-0.13335 -0.296333,-0.29633 z m 134.895591,-0.21167 c 0.16857,-0.18626 0.34459,-0.33866 0.39116,-0.33866 0.0466,0 -0.0532,0.1524 -0.22182,0.33866 -0.16857,0.18627 -0.34459,0.33867 -0.39116,0.33867 -0.0466,0 0.0533,-0.1524 0.22182,-0.33867 z m 7.39902,-18.88066 c 0.003,-0.27941 0.0414,-0.37321 0.0843,-0.20845 0.0429,0.16476 0.0401,0.39336 -0.006,0.508 -0.0464,0.11464 -0.0815,-0.0202 -0.0781,-0.29955 z M 29.490609,139.67311 c 0.0035,-0.2794 0.0414,-0.3732 0.08433,-0.20845 0.04293,0.16476 0.04011,0.39336 -0.0063,0.508 -0.04638,0.11465 -0.08151,-0.0202 -0.07806,-0.29955 z m 0,-88.73067 c 0.0035,-0.2794 0.0414,-0.373201 0.08433,-0.208445 0.04293,0.164757 0.04011,0.393357 -0.0063,0.508 -0.04638,0.114644 -0.08151,-0.02016 -0.07806,-0.299555 z m 149.853721,-0.762 c 0,-0.232834 0.0384,-0.328084 0.0854,-0.211667 0.047,0.116417 0.047,0.306917 0,0.423333 -0.047,0.116417 -0.0854,0.02117 -0.0854,-0.211666 z m -7.91682,-19.515667 -0.32258,-0.381 0.381,0.322578 c 0.20955,0.177417 0.381,0.348867 0.381,0.381 0,0.135509 -0.13628,0.03547 -0.43942,-0.322578 z m -133.926579,-0.127 c 0.168569,-0.186267 0.344589,-0.338667 0.391156,-0.338667 0.04657,0 -0.05325,0.1524 -0.221823,0.338667 -0.168568,0.186266 -0.344589,0.338666 -0.391155,0.338666 -0.04657,0 0.05325,-0.1524 0.221822,-0.338666 z m 2.201333,-2.201334 c 0.168569,-0.186266 0.34459,-0.338666 0.391156,-0.338666 0.04657,0 -0.05325,0.1524 -0.221822,0.338666 -0.168569,0.186267 -0.344589,0.338667 -0.391156,0.338667 -0.04657,0 0.05325,-0.1524 0.221822,-0.338667 z M 168.79733,28.040106 c -0.21063,-0.268572 -0.20464,-0.274562 0.0639,-0.06393 0.16298,0.12782 0.29633,0.26117 0.29633,0.296334 0,0.139367 -0.13905,0.04967 -0.36026,-0.232401 z"
         id="path70" />
      <path
         style="fill:#ff0000;fill-opacity:1;stroke-width:0.169333"
         d="m 57.651597,170.21621 c -5.655306,-0.53855 -11.080411,-2.65995 -15.748263,-6.15811 -1.75279,-1.31357 -4.652369,-4.20166 -5.967916,-5.94427 -3.095189,-4.09998 -5.048633,-8.61831 -5.995966,-13.86872 l -0.397187,-2.20133 V 95.646441 c 0,-50.355388 -0.04861,-47.690469 0.944136,-51.755932 2.200348,-9.010768 8.503381,-16.636601 17.120831,-20.713934 3.456273,-1.635331 7.110542,-2.532137 11.399032,-2.797476 3.50994,-0.217167 87.433056,-0.221247 90.931996,-0.0044 8.03502,0.497924 14.80334,3.516496 20.33153,9.067568 5.40625,5.428624 8.45973,12.088827 9.04195,19.722193 0.22334,2.928122 0.23181,89.26139 0.009,92.30477 -0.74328,10.15514 -6.35486,19.2571 -15.11321,24.51356 -3.96318,2.37857 -8.25423,3.76622 -13.14427,4.25063 -2.16481,0.21444 -91.151277,0.19807 -93.411719,-0.0172 z M 109.03312,118.21957 C 131.89122,105.70143 150.62048,95.377776 150.6537,95.278117 150.69602,95.15118 71.828807,51.786465 67.430597,49.518336 l -0.381,-0.196479 v 45.91341 c 0,36.662863 0.04265,45.896403 0.211667,45.828983 0.116416,-0.0464 18.91375,-10.32654 41.771856,-22.84468 z"
         id="path68" />
    </g>
  </g>
</svg>
